<svg xmlns="http://www.w3.org/2000/svg" xmlns:xlink="http://www.w3.org/1999/xlink" version="1.1" id="Layer_1" x="0px" y="0px" viewBox="0 0 122.88 100.38" style="enable-background:new 0 0 122.88 100.38" xml:space="preserve"><g><path d="M119.66,94.98l-1.33-1.54L112,99.77l0,0c-0.71,0.71-1.86,0.72-2.57,0.02l-6.45-6.27l-6.31,6.07 c-0.69,0.72-1.83,0.75-2.56,0.07l-6.7-6.19l-6.08,6.26c-0.03,0.04-0.07,0.08-0.11,0.12c-0.72,0.72-1.88,0.72-2.6,0l-6.38-6.38 l-6.58,6.27l0,0c-0.72,0.68-1.86,0.67-2.56-0.03l-6.26-6.32l-1.3,1.5c-0.33,0.45-0.88,0.74-1.48,0.74c-1.01,0-1.84-0.83-1.84-1.84 V69.26c0.42,0.07,0.85,0.1,1.27,0.11c0.81,0.01,1.63-0.09,2.41-0.32v20c0.65-0.34,1.46-0.27,2.05,0.24c0.04,0.03,0.07,0.06,0.1,0.1 l0,0l6.38,6.44l6.57-6.25c0.73-0.69,1.86-0.67,2.56,0.03l0,0l6.33,6.32l6.12-6.31c0.7-0.71,1.83-0.74,2.56-0.07l0,0l6.75,6.23 l6.4-6.14c0.72-0.69,1.86-0.68,2.56,0.02l6.41,6.23l6.44-6.44c0.55-0.56,1.4-0.68,2.08-0.36l0,0V39.2H85.27 c0.12-0.59,0.17-1.19,0.16-1.79c-0.01-0.63-0.09-1.27-0.24-1.89h35.84c1.01,0,1.84,0.82,1.84,1.84v56.42h0 c0,0.51-0.22,1.02-0.64,1.39C121.48,95.83,120.32,95.75,119.66,94.98L119.66,94.98L119.66,94.98z M88.41,60.93 c-0.8,0-1.44-0.64-1.44-1.44s0.64-1.44,1.44-1.44h21.03c0.8,0,1.44,0.64,1.44,1.44s-0.64,1.44-1.44,1.44H88.41L88.41,60.93z M81.71,62.9l-5.34,0.84c-0.27-0.67-0.51-1.14-0.72-1.4c-0.22-0.26-0.56-0.52-1.06-0.78v4.14c2.89,0.77,4.83,1.59,5.81,2.45 c1.29,1.16,1.93,2.62,1.93,4.4c0,1.04-0.23,1.99-0.69,2.86c-0.46,0.87-1.06,1.59-1.77,2.18c-0.72,0.58-1.49,1-2.3,1.27 c-0.81,0.26-1.8,0.42-2.98,0.46v1.95H72.5v-1.95c-1.4-0.12-2.54-0.34-3.42-0.67c-0.87-0.33-1.63-0.78-2.26-1.36 c-0.63-0.58-1.12-1.2-1.46-1.87c-0.34-0.67-0.6-1.48-0.77-2.43l5.78-0.67c0.17,0.94,0.41,1.62,0.7,2.03 c0.29,0.42,0.77,0.79,1.44,1.11v-5.06c-1.93-0.54-3.3-1-4.11-1.39c-0.8-0.39-1.5-1.02-2.1-1.88c-0.59-0.87-0.89-1.91-0.89-3.16 c0-1.7,0.6-3.12,1.78-4.26c1.19-1.14,2.96-1.77,5.31-1.9v-1.41h2.09v1.41c2.14,0.13,3.77,0.64,4.91,1.52 C80.63,60.18,81.37,61.38,81.71,62.9L81.71,62.9z M72.5,61.48c-0.61,0.2-1.04,0.45-1.28,0.75c-0.24,0.29-0.36,0.64-0.36,1.04 c0,0.42,0.12,0.78,0.37,1.09c0.24,0.31,0.67,0.57,1.27,0.78V61.48L72.5,61.48z M74.59,75.59c0.81-0.18,1.4-0.49,1.77-0.9 c0.38-0.42,0.57-0.88,0.57-1.4c0-0.45-0.16-0.86-0.48-1.24c-0.32-0.38-0.94-0.73-1.87-1.05V75.59L74.59,75.59z M62.7,17.11 L62.7,17.11c1.99,1.99,2.03,5.2,0.09,7.14l-1.05,1.05l8.42,8.28L48.85,54.12l-8.2-8.5L8.66,77.61c-1.94,1.94-5.16,1.9-7.14-0.09 l0,0c-1.99-1.99-2.03-5.19-0.09-7.14l32.11-32.11l-6.42-6.68l20.15-20.54l7.21,7.07l1.1-1.1C57.5,15.09,60.71,15.12,62.7,17.11 L62.7,17.11L62.7,17.11z M46.38,1.21L46.38,1.21c1.58,1.58,1.61,4.13,0.07,5.68l-23.49,23.5c-1.55,1.54-4.1,1.51-5.68-0.07l0,0 c-1.58-1.58-1.61-4.14-0.07-5.68L40.7,1.14C42.24-0.41,44.8-0.37,46.38,1.21L46.38,1.21L46.38,1.21z M79.78,34.61L79.78,34.61 c1.58,1.58,1.62,4.14,0.07,5.68l-23.5,23.51c-1.55,1.54-4.09,1.51-5.68-0.07l0,0c-1.58-1.58-1.62-4.14-0.07-5.68l23.5-23.5 C75.65,33,78.2,33.02,79.78,34.61L79.78,34.61L79.78,34.61z M101.69,76.09c0.75,0,1.35,0.6,1.35,1.35c0,0.75-0.6,1.36-1.35,1.36 H88.6c-0.75,0-1.35-0.61-1.35-1.36c0-0.75,0.6-1.35,1.35-1.35H101.69L101.69,76.09L101.69,76.09z M109.37,67.06 c0.75,0,1.36,0.61,1.36,1.36c0,0.75-0.61,1.35-1.36,1.35H88.6c-0.75,0-1.35-0.6-1.35-1.35s0.6-1.36,1.35-1.36H109.37L109.37,67.06 L109.37,67.06z" fill="#ffffff"/></g></svg>