<svg xml:space="preserve" viewBox="0 419.04 1041.12 244.08" version="1.1" xmlns:xlink="http://www.w3.org/1999/xlink" xmlns="http://www.w3.org/2000/svg" style="max-height: 500px" width="1041.12" height="244.08">
<desc>Created with Fabric.js 5.2.4</desc>
<defs>
</defs>
<g id="7d2e30aa-7fc2-48c2-8fb0-a05c8a8409ae" transform="matrix(1 0 0 1 540 540)">
<rect height="1080" width="1080" ry="0" rx="0" y="-540" x="-540" style="stroke: none; stroke-width: 1; stroke-dasharray: none; stroke-linecap: butt; stroke-dashoffset: 0; stroke-linejoin: miter; stroke-miterlimit: 4; fill: rgb(255,255,255); fill-rule: nonzero; opacity: 1; visibility: hidden;"/>
</g>
<g id="6e7b5714-0ac7-4215-8ba3-553ca98e1ed5" transform="matrix(1 0 0 1 540 540)">
</g>
<g transform="matrix(0.13 0 0 -0.13 67.15 448.8)">
<path stroke-linecap="round" d="M 1513 6075 C 1470 6056 1440 6006 1440 5951 C 1440 5775 1695 5762 1716 5937 C 1729 6042 1615 6120 1513 6075 z" transform="translate(-1578.51, -5950.09)" style="stroke: none; stroke-width: 1; stroke-dasharray: none; stroke-linecap: butt; stroke-dashoffset: 0; stroke-linejoin: miter; stroke-miterlimit: 4; fill: rgb(1,1,0); fill-rule: nonzero; opacity: 1;"/>
</g>
<g transform="matrix(0.13 0 0 -0.13 61.9 504.08)">
<path stroke-linecap="round" d="M 1896 5966 C 1803 5855 1719 5782 1643 5747 C 1600 5727 1579 5725 1430 5725 C 1305 5725 1246 5729 1187 5743 C 1144 5753 1106 5759 1103 5757 C 1101 5754 1143 5729 1197 5701 C 1377 5608 1487 5505 1532 5386 C 1552 5333 1555 5307 1554 5195 C 1554 5124 1549 5047 1542 5026 C 1536 5004 1533 4984 1535 4982 C 1550 4966 1689 5096 1740 5173 C 1789 5248 1814 5329 1835 5475 C 1852 5591 1894 5757 1958 5953 C 1979 6017 1994 6070 1990 6070 C 1986 6070 1944 6023 1896 5966 z" transform="translate(-1546.79, -5525.33)" style="stroke: none; stroke-width: 1; stroke-dasharray: none; stroke-linecap: butt; stroke-dashoffset: 0; stroke-linejoin: miter; stroke-miterlimit: 4; fill: rgb(138,92,247); fill-rule: nonzero; opacity: 1;"/>
</g>
<g transform="matrix(0.13 0 0 -0.13 651.68 567.43)">
<path stroke-linecap="round" d="M 5830 5626 C 5733 5599 5655 5538 5612 5456 C 5588 5411 5585 5394 5585 5305 C 5585 5220 5588 5198 5608 5160 C 5660 5061 5739 5009 5937 4945 C 6103 4891 6135 4867 6135 4795 C 6135 4720 6077 4680 5968 4680 C 5886 4680 5836 4711 5799 4783 C 5771 4836 5726 4862 5671 4857 C 5613 4851 5579 4817 5573 4757 C 5566 4694 5584 4648 5641 4585 C 5799 4413 6135 4405 6284 4571 C 6346 4638 6373 4709 6374 4804 C 6375 4877 6372 4892 6342 4952 C 6289 5061 6215 5110 6006 5175 C 5912 5204 5879 5219 5853 5245 C 5763 5335 5865 5442 6010 5410 C 6057 5400 6073 5389 6122 5339 C 6187 5273 6225 5259 6283 5283 C 6333 5305 6354 5340 6347 5395 C 6337 5485 6236 5582 6112 5620 C 6038 5643 5902 5646 5830 5626 z" transform="translate(-5972.86, -5045.21)" style="stroke: none; stroke-width: 0; stroke-dasharray: none; stroke-linecap: butt; stroke-dashoffset: 0; stroke-linejoin: miter; stroke-miterlimit: 4; fill: rgb(139,92,246); fill-rule: nonzero; opacity: 1;"/>
</g>
<g transform="matrix(0.13 0 0 -0.13 123.7 568.61)">
<path stroke-linecap="round" d="M 2316 5620 C 2301 5615 2279 5603 2268 5593 C 2239 5568 2059 5327 1971 5198 C 1883 5068 1818 5011 1618 4886 C 1546 4842 1526 4812 1534 4765 C 1544 4715 1588 4687 1667 4682 C 1727 4678 1734 4680 1785 4714 C 1815 4734 1869 4775 1905 4806 C 1941 4836 1975 4860 1980 4858 C 1988 4855 2042 4782 2194 4570 C 2262 4475 2279 4459 2327 4453 C 2403 4444 2470 4485 2485 4551 C 2492 4581 2464 4626 2277 4875 C 2211 4963 2156 5040 2153 5047 C 2150 5054 2215 5141 2296 5242 C 2482 5472 2490 5484 2490 5531 C 2490 5607 2410 5648 2316 5620 z" transform="translate(-2011.17, -5040.3)" style="stroke: none; stroke-width: 1; stroke-dasharray: none; stroke-linecap: butt; stroke-dashoffset: 0; stroke-linejoin: miter; stroke-miterlimit: 4; fill: rgb(0,0,0); fill-rule: nonzero; opacity: 1;"/>
</g>
<g transform="matrix(0.13 0 0 -0.13 870.47 572.12)">
<path stroke-linecap="round" d="M 7533 5559 C 7476 5542 7460 5510 7460 5409 L 7460 5320 L 7420 5320 C 7362 5320 7310 5272 7310 5218 C 7310 5173 7332 5125 7359 5110 C 7370 5105 7397 5100 7419 5100 L 7459 5100 L 7462 4878 L 7465 4655 L 7495 4600 C 7547 4506 7664 4449 7781 4463 C 7861 4473 7905 4516 7905 4587 C 7905 4653 7870 4682 7783 4689 C 7691 4697 7690 4699 7690 4923 L 7690 5100 L 7763 5100 C 7861 5101 7900 5133 7900 5215 C 7900 5290 7858 5320 7755 5320 L 7690 5320 L 7690 5415 C 7690 5505 7688 5513 7665 5534 C 7651 5547 7626 5560 7609 5564 C 7573 5571 7575 5571 7533 5559 z" transform="translate(-7607.5, -5014.82)" style="stroke: none; stroke-width: 1; stroke-dasharray: none; stroke-linecap: butt; stroke-dashoffset: 0; stroke-linejoin: miter; stroke-miterlimit: 4; fill: rgb(138,92,247); fill-rule: nonzero; opacity: 1;"/>
</g>
<g transform="matrix(0.13 0 0 -0.13 495.72 589.2)">
<path stroke-linecap="round" d="M 4551 5318 C 4521 5313 4473 5296 4445 5280 L 4392 5250 L 4357 5285 C 4318 5324 4283 5330 4226 5306 C 4159 5278 4160 5285 4160 4884 L 4160 4522 L 4185 4492 C 4227 4442 4314 4442 4367 4492 C 4389 4512 4390 4521 4391 4639 C 4391 4708 4395 4822 4399 4893 L 4406 5020 L 4442 5057 C 4475 5089 4486 5094 4537 5097 C 4582 5100 4602 5097 4626 5082 C 4684 5045 4690 5016 4690 4778 C 4690 4551 4697 4501 4733 4478 C 4789 4441 4873 4450 4909 4497 C 4929 4521 4930 4536 4930 4754 C 4930 4954 4932 4990 4948 5020 C 4988 5100 5096 5127 5161 5073 C 5216 5027 5220 5004 5220 4760 C 5220 4512 5225 4489 5286 4464 C 5330 4445 5392 4455 5425 4486 L 5451 4510 L 5448 4808 L 5445 5105 L 5417 5153 C 5306 5342 5065 5382 4898 5239 L 4861 5207 L 4819 5244 C 4749 5308 4657 5333 4551 5318 z" transform="translate(-4805.5, -4889.66)" style="stroke: none; stroke-width: 1; stroke-dasharray: none; stroke-linecap: butt; stroke-dashoffset: 0; stroke-linejoin: miter; stroke-miterlimit: 4; fill: rgb(0,0,0); fill-rule: nonzero; opacity: 1;"/>
</g>
<g transform="matrix(0.13 0 0 -0.13 771.71 589.44)">
<path stroke-linecap="round" d="M 6813 5320 C 6747 5310 6647 5263 6595 5217 C 6420 5063 6414 4747 6583 4578 C 6681 4480 6837 4433 6982 4458 C 7152 4487 7254 4572 7230 4662 C 7208 4740 7151 4755 7048 4709 C 6948 4664 6879 4660 6807 4693 C 6757 4716 6722 4750 6707 4793 C 6701 4809 6717 4810 6954 4810 C 7191 4810 7209 4811 7232 4830 C 7271 4860 7283 4901 7278 4979 C 7272 5058 7240 5135 7187 5196 C 7108 5287 6948 5340 6813 5320 z M 6930 5103 C 6967 5096 7050 5022 7050 4997 C 7050 4982 7032 4980 6875 4980 C 6779 4980 6700 4983 6700 4988 C 6700 5002 6736 5049 6762 5069 C 6811 5108 6859 5118 6930 5103 z" transform="translate(-6869.49, -4887.79)" style="stroke: none; stroke-width: 1; stroke-dasharray: none; stroke-linecap: butt; stroke-dashoffset: 0; stroke-linejoin: miter; stroke-miterlimit: 4; fill: rgb(139,92,246); fill-rule: nonzero; opacity: 1;"/>
</g>
<g transform="matrix(0.13 0 0 -0.13 248.35 589.48)">
<path stroke-linecap="round" d="M 2780 5299 C 2610 5233 2510 5080 2510 4886 C 2510 4750 2556 4641 2648 4558 C 2776 4442 2985 4421 3111 4511 L 3141 4532 L 3174 4494 C 3206 4457 3211 4455 3265 4456 C 3317 4456 3325 4459 3351 4488 L 3380 4520 L 3380 4888 C 3380 5221 3378 5257 3362 5276 C 3337 5307 3307 5320 3260 5320 C 3225 5320 3212 5314 3183 5285 L 3149 5251 L 3088 5283 C 3034 5311 3017 5315 2931 5317 C 2852 5320 2825 5316 2780 5299 z M 3001 5088 C 3090 5058 3142 4985 3142 4890 C 3142 4773 3055 4685 2940 4686 C 2824 4687 2748 4760 2742 4879 C 2737 4982 2782 5052 2876 5085 C 2924 5102 2957 5103 3001 5088 z" transform="translate(-2945, -4887.58)" style="stroke: none; stroke-width: 1; stroke-dasharray: none; stroke-linecap: butt; stroke-dashoffset: 0; stroke-linejoin: miter; stroke-miterlimit: 4; fill: rgb(0,0,0); fill-rule: nonzero; opacity: 1;"/>
</g>
<g transform="matrix(0.13 0 0 -0.13 363.56 589.53)">
<path stroke-linecap="round" d="M 3594 5306 C 3529 5278 3530 5283 3530 4885 C 3530 4568 3532 4522 3546 4501 C 3596 4430 3732 4443 3759 4522 C 3766 4540 3770 4636 3770 4753 C 3770 4946 3771 4955 3794 4994 C 3822 5042 3875 5075 3951 5091 C 4021 5106 4037 5115 4060 5153 C 4091 5203 4086 5246 4046 5286 C 4019 5313 4004 5320 3972 5320 C 3922 5320 3856 5297 3814 5265 C 3774 5235 3763 5234 3755 5261 C 3746 5288 3692 5320 3655 5320 C 3639 5319 3611 5313 3594 5306 z" transform="translate(-3805.05, -4887.27)" style="stroke: none; stroke-width: 1; stroke-dasharray: none; stroke-linecap: butt; stroke-dashoffset: 0; stroke-linejoin: miter; stroke-miterlimit: 4; fill: rgb(0,0,0); fill-rule: nonzero; opacity: 1;"/>
</g>
<g transform="matrix(0.13 0 0 -0.13 973.01 589.23)">
<path stroke-linecap="round" d="M 8048 5304 C 8033 5296 8016 5281 8010 5270 C 7994 5239 7997 4744 8014 4686 C 8065 4518 8251 4425 8428 4479 C 8467 4491 8502 4505 8505 4510 C 8509 4516 8525 4507 8541 4490 C 8568 4464 8578 4460 8629 4460 C 8697 4460 8733 4482 8748 4533 C 8764 4583 8758 5239 8742 5267 C 8708 5327 8588 5338 8543 5286 C 8520 5259 8520 5255 8520 5027 C 8520 4813 8518 4792 8500 4762 C 8459 4695 8360 4669 8289 4706 C 8236 4733 8230 4764 8230 5020 C 8230 5160 8226 5259 8220 5271 C 8195 5316 8103 5334 8048 5304 z" transform="translate(-8378.45, -4889.62)" style="stroke: none; stroke-width: 1; stroke-dasharray: none; stroke-linecap: butt; stroke-dashoffset: 0; stroke-linejoin: miter; stroke-miterlimit: 4; fill: rgb(138,93,246); fill-rule: nonzero; opacity: 1;"/>
</g>
<g transform="matrix(0 0 0 0 0 0)">
<g style="">
</g>
</g>
<g transform="matrix(0 0 0 0 0 0)">
<g style="">
</g>
</g>
<g transform="matrix(0 0 0 0 0 0)">
<g style="">
</g>
</g>
<g transform="matrix(0 0 0 0 0 0)">
<g style="">
</g>
</g>
</svg>